<svg id="Lag_1" data-name="Lag 1" xmlns="http://www.w3.org/2000/svg" viewBox="0 0 385.07 839.77"><defs><style>.cls-1{fill:#1d1e1c;}</style></defs><title>cap-leasing-logo</title><path class="cls-1" d="M19.54,721.7V709.33q0-6.12-4.92-6.12T9.7,709.33v70.5q0,6.12,4.92,6.12t4.92-6.12V766.4h8.78v13.7q0,13.3-13.7,13.3T.92,780.1v-71q0-13.3,13.7-13.3t13.7,13.3v12.64H19.54Z"/><path class="cls-1" d="M64.5,792.57,60.91,766H45.48l-3.59,26.6H33.11l14.14-96h12l14,96Zm-4.52-34-6.65-55.33h-.27l-6.65,55.33Z"/><path class="cls-1" d="M82.06,792.57v-96h14q8.39,0,11.51,3.19t3.13,11.44v23.54q0,8.25-3.13,11.44T96,749.37H90.84v43.2Zm8.78-50.68H95.1q6.78,0,6.78-6V710q0-6-6.78-6H90.84v37.89Z"/><path class="cls-1" d="M137.39,792.57v-96h8.78v88.59h14.5v7.41Z"/><path class="cls-1" d="M171.84,792.57v-96h23.28V704h-14.5v35h13.83v7.45H180.62v38.71h14.5v7.39Z"/><path class="cls-1" d="M232.9,792.57,229.31,766H213.88l-3.63,26.6h-8.78l14.1-96h12l14.1,96H232.9Zm-4.53-34-6.65-55.33h-.27l-6.64,55.33h13.56Z"/><path class="cls-1" d="M267.61,721.44V709.73q0-6.53-5.19-6.52t-5.17,6.52v10.11a17,17,0,0,0,2,8.65l14,23.94a22.85,22.85,0,0,1,3.19,11.71V779.3q0,14.1-14.1,14.1Q248,793.4,248,779.3V766.13h8.78v12.64q0,7.18,5.59,7.18,5.32,0,5.32-7.18V765.33a18.09,18.09,0,0,0-2.53-9.18l-12.9-22.48a24.84,24.84,0,0,1-3.72-12.24V709.87q0-14.1,14-14.1t14,13.43v12.24h-8.9Z"/><path class="cls-1" d="M287.43,792.57v-96h8.82v96h-8.82Z"/><path class="cls-1" d="M333.19,696.57h7.71v96H328.25l-11.17-85.4v85.4h-7.72v-96h12.89l10.9,82.21V696.57Z"/><path class="cls-1" d="M369,753v-7.45H384.8v45A37.38,37.38,0,0,1,371,793.44q-16.49,0-16.49-16.89V710.93q0-15.16,15.16-15.16t15.16,15.16V721.7H376v-9.58q0-8.91-6.39-8.91t-6.38,8.92v64.25q0,9.58,6.92,9.58a10.56,10.56,0,0,0,5.85-1.33V753h-7Z"/><polygon class="cls-1" points="0 128.86 0 507.06 158 633.25 158 509.31 103 461.05 103 157.47 192 92.92 192 179.63 289 113.75 289 63.28 192.72 0 0 128.86"/><polygon class="cls-1" points="192 227.23 192 659.79 385 503.24 385 393.73 289 463.87 289 160.5 192 227.23"/><rect class="cls-1" x="0.55" y="834.44" width="384.52" height="5.33"/></svg>